<svg width="1728" height="1138" viewBox="0 0 1728 1138" fill="none" xmlns="http://www.w3.org/2000/svg">
<path fill-rule="evenodd" clip-rule="evenodd" d="M1728 49.5023V570.002V1078L1624.5 1095L1612.8 1103.5L1557 1097.5L1502.55 1089L1485 1080.5L1434.6 1100L1396.8 1097.5L1295.1 1118L1249.65 1095.5L1219.95 1104L1185.3 1097L1131.75 1104H1080L1026.22 1096.75L1001.25 1080.5L988.2 1073.5L964.8 1068L915.3 1066.5L863.1 1078.5L755.212 1080L701.55 1087.5L676.8 1072L644.4 1080L539.55 1072L493.2 1075L472.95 1086L481.95 1113.5L441 1113L416.025 1118.75L380.7 1117.5L354.15 1125.5H332.55L314.55 1122.5L290.7 1114H282.6L265.5 1131L252 1122.5L226.35 1128L216.45 1121.5L204.75 1128L187.2 1114L169.762 1118.63L155.7 1117.5L140.85 1106L118.35 1100.5L59.85 1091L31.5 1095L0 1090.5V570.002V62.0023L103.5 45.0023L115.2 36.5023L171 42.5023L225.45 51.0023L243 59.5023L293.4 40.0023L331.2 42.5023L432.9 22.0023L478.35 44.5023L508.05 36.0023L542.7 43.0023L596.25 36.0023H648L701.775 43.2523L726.75 59.5023L739.8 66.5023L763.2 72.0023L812.7 73.5023L864.9 61.5023L972.788 60.0023L1026.45 52.5023L1051.2 68.0023L1083.6 60.0023L1188.45 68.0023L1234.8 65.0023L1255.05 54.0023L1246.05 26.5023L1287 27.0023L1311.97 21.2523L1347.3 22.5023L1373.85 14.5023H1395.45L1413.45 17.5023L1437.3 26.0023H1445.4L1462.5 9.00229L1476 17.5023L1501.65 12.0023L1511.55 18.5023L1523.25 12.0023L1540.8 26.0023L1558.24 21.3773L1572.3 22.5023L1587.15 34.0023L1609.65 39.5023L1668.15 49.0023L1696.5 45.0023L1728 49.5023Z" fill="white"/>
<path d="M18.9098 1093.9L0 1092.4V1079.9L18.9098 1080.4C23.8624 1088.4 36.9192 1090.4 41.4216 1090.4C45.9239 1090.4 50.8765 1084.4 52.2272 1083.4C53.5779 1082.4 70.6868 1082.4 77.4403 1083.4C84.1939 1084.4 86.445 1090.9 87.3455 1090.9C88.246 1090.9 101.303 1088.9 104.004 1088.4C106.165 1088 112.108 1090.56 114.81 1091.9C116.971 1099.5 122.614 1098.73 125.165 1097.4C141.374 1093.9 144.525 1098.9 150.829 1107.9C157.132 1116.9 160.734 1115.4 161.184 1115.4C167.667 1111 177.392 1107.56 181.445 1106.4C193.151 1104.9 193.151 1122.4 204.406 1123.9C207.799 1124.35 213.561 1118.06 216.113 1114.4C216.563 1117.9 227.819 1129.4 233.672 1125.4C238.354 1122.2 247.629 1117.06 251.681 1114.9C253.932 1122.9 261.136 1127.9 264.738 1127.9C268.34 1127.9 276.444 1119.4 276.444 1116.4C276.444 1113.4 282.747 1105.4 282.747 1106.9C282.747 1108.1 287.25 1109.4 289.501 1109.9C289.501 1110.4 290.942 1110.8 296.705 1108.4C302.107 1107.4 314.714 1119.4 318.316 1119.4C321.197 1119.4 324.019 1117.4 325.069 1116.4C329.752 1125.2 333.624 1123.73 334.974 1121.9C335.575 1120.73 338.486 1117.7 345.33 1114.9C353.884 1111.4 352.534 1123.9 354.785 1121.9C357.036 1119.9 367.391 1114.4 375.496 1111.4C383.6 1108.4 389.453 1114.9 400.258 1116.4C411.064 1117.9 423.671 1107.9 431.775 1105.4C439.879 1102.9 456.088 1109.9 465.993 1111.4C475.898 1112.9 480.4 1108.9 481.301 1109.9C482.021 1110.7 487.004 1115.23 489.405 1117.4C479.68 1125.4 446.032 1120.73 430.424 1117.4C422.14 1123.4 401.159 1125.9 391.704 1126.4C379.458 1117.2 361.989 1126.56 354.785 1132.4C350.823 1122.4 342.028 1127.23 338.126 1130.9C330.202 1137.7 326.72 1130.73 325.97 1126.4C322.008 1132 318.316 1130.73 316.965 1129.4C301.657 1120.9 296.254 1117.4 293.553 1119.4C290.852 1121.4 288.6 1120.9 287.25 1120.9C286.169 1120.9 283.798 1118.56 282.747 1117.4C281.997 1117.23 280.316 1117.7 279.596 1120.9C278.875 1124.1 272.992 1132.23 270.141 1135.9C262.937 1142.7 254.833 1131.06 251.681 1124.4L243.577 1129.4C234.572 1135.8 229.92 1136.4 228.719 1135.9C224.757 1136.3 218.364 1128.4 215.662 1124.4C209.809 1132.9 199.004 1139.4 192.25 1124.4C185.497 1109.4 167.487 1124.4 165.686 1124.4C159.203 1129.2 156.081 1126.4 155.331 1124.4C140.923 1108 133.419 1106.9 131.468 1108.4C115.98 1112.4 113.909 1106.73 114.81 1103.4L103.104 1100.9C100.943 1102.1 91.6978 1103.06 87.3455 1103.4C79.7816 1092.2 60.4815 1094.4 51.777 1096.9C39.1704 1109.3 24.6128 1100.06 18.9098 1093.9Z" fill="white"/>
<path d="M469.144 1080.4C468.694 1081.4 474.097 1088.9 474.097 1089.4C486.703 1081.4 501.861 1079.4 507.865 1079.4C522.632 1069.4 533.528 1075.23 537.13 1079.4C551.537 1071.4 552.888 1084.4 575.4 1082.9C593.409 1088.1 608.117 1084.73 613.219 1082.4C619.703 1090.94 630.929 1089.96 635.731 1088.4C664.906 1072 675.502 1075.9 677.153 1079.9C686.157 1074.9 694.262 1091.9 700.115 1093.9C705.968 1095.9 708.669 1086.9 709.119 1086.9C709.57 1086.9 715.423 1089.4 724.427 1091.4C731.631 1093 748.14 1089.06 755.493 1086.9C765.219 1090.5 793.463 1088.4 806.37 1086.9C816.725 1090.9 809.522 1091.9 834.735 1085.4C859.948 1078.9 854.545 1087.4 863.55 1083.9C870.754 1081.1 884.561 1082.06 890.564 1082.9C892.215 1081.56 896.237 1078.8 899.118 1078.4C902 1078 904.521 1079.23 905.422 1079.9C905.422 1077.9 909.324 1074.73 911.275 1073.4C934.237 1068.9 954.047 1076.9 954.947 1076.9C955.848 1076.9 954.947 1078.4 961.701 1074.9C968.454 1071.4 972.507 1079.9 972.957 1079.9C986.464 1072.4 990.066 1081.9 992.767 1084.4C995.469 1086.9 1008.53 1089.9 1014.38 1092.9C1020.23 1095.9 1028.79 1106.4 1033.74 1108.4C1037.7 1110 1058.5 1108.73 1068.41 1107.9C1072.46 1113.4 1099.47 1110.9 1104.43 1109.4C1109.38 1107.9 1114.78 1112.9 1116.13 1111.4C1117.48 1109.9 1136.84 1110.9 1157.55 1103.9C1174.12 1098.3 1196.27 1101.56 1205.28 1103.9C1217.88 1119.9 1232.29 1107.4 1237.24 1102.9C1241.21 1099.3 1246.1 1099.73 1248.05 1100.4C1250.6 1101.56 1256.15 1103.9 1257.96 1103.9C1260.21 1103.9 1268.76 1112.4 1271.46 1112.9C1273.62 1113.3 1275.66 1112.06 1276.41 1111.4C1282.27 1120.4 1285.87 1120.9 1294.87 1125.4C1302.08 1129 1320.09 1117.56 1328.19 1111.4C1336.3 1116.4 1345.3 1111.9 1353.4 1110.4C1359.89 1109.2 1363.91 1109.9 1365.11 1110.4C1371.56 1107.23 1388.61 1102.1 1405.18 1106.9C1421.75 1111.7 1434.9 1105.9 1439.4 1102.4C1455.16 1102.4 1472.72 1089.4 1477.67 1087.4C1482.62 1085.4 1494.33 1086.4 1494.33 1087.4C1494.33 1088.4 1499.28 1097.9 1500.18 1097.9C1500.9 1097.9 1501.98 1096.56 1502.43 1095.9C1509.64 1099.1 1529.75 1102.9 1538.9 1104.4L1583.47 1104.9C1592.12 1100.9 1607.49 1106.56 1614.09 1109.9H1619.94V1108.4C1608.69 1091.9 1652.81 1103.9 1655.06 1103.9C1656.86 1103.9 1661.22 1099.56 1663.17 1097.4L1661.37 1096.4C1660.46 1095.9 1659.11 1087.9 1658.21 1089.4C1657.49 1090.6 1654.31 1090.9 1652.81 1090.9C1614.09 1081.9 1618.59 1089.4 1618.59 1091.9C1618.59 1094.4 1619.94 1097.9 1617.69 1098.4C1615.89 1098.8 1600.43 1093.9 1592.93 1091.4C1590.23 1092.4 1584.02 1093.9 1580.77 1091.9C1576.72 1089.4 1539.8 1093.9 1538 1091.9C1536.2 1089.9 1514.14 1087.4 1508.74 1085.9C1504.41 1084.7 1502.43 1083.06 1501.98 1082.4C1501.83 1083.06 1501.26 1084.5 1500.18 1084.9C1498.83 1085.4 1496.58 1077.9 1494.33 1073.4C1492.53 1069.8 1482.17 1071.9 1477.22 1073.4C1470.02 1081.4 1440.75 1089.9 1438.5 1090.9C1436.25 1091.9 1431.75 1098.4 1423.64 1096.4C1415.54 1094.4 1388.97 1093.9 1386.27 1093.4C1383.57 1092.9 1369.16 1097.9 1363.76 1099.4C1358.36 1100.9 1362.41 1099.9 1355.66 1097.9C1348.9 1095.9 1344.4 1101.9 1339.45 1102.4C1335.49 1102.8 1330.29 1100.56 1328.19 1099.4C1314.68 1111.4 1310.18 1109.9 1300.28 1114.9C1290.37 1119.9 1276.41 1098.4 1276.41 1098.9C1276.41 1099.4 1271.46 1100.9 1268.76 1100.4C1266.06 1099.9 1258.86 1092.4 1257.96 1091.9C1257.05 1091.4 1257.05 1091.9 1251.2 1088.4C1246.52 1085.6 1242.35 1087.23 1240.85 1088.4C1237.54 1091.56 1229.23 1098.4 1222.39 1100.4C1213.83 1102.9 1207.98 1094.4 1205.28 1091.9C1202.58 1089.4 1188.62 1089.9 1187.72 1089.9C1177.27 1086.3 1167.16 1088.4 1163.41 1089.9C1151.52 1093.9 1125.44 1097.9 1113.88 1099.4C1111.63 1094.4 1085.97 1102.4 1076.06 1099.4C1068.14 1097 1065.25 1095.73 1064.8 1095.4C1051.3 1098.9 1037.34 1096.9 1032.84 1095.4C1028.34 1093.9 1018.88 1077.9 1014.38 1078.9C1010.78 1079.7 997.57 1072.56 991.416 1068.9C984.213 1055.9 977.909 1063.4 977.009 1062.9C976.108 1062.4 973.407 1066.4 972.507 1064.4C971.606 1062.4 967.104 1059.4 963.502 1060.4C959.9 1061.4 955.848 1061.4 954.947 1061.4C948.194 1056.4 925.682 1058.4 920.279 1058.4H911.725C908.483 1058.4 906.172 1063.06 905.422 1065.4C902.9 1060.2 895.066 1065.56 891.464 1068.9C886.782 1065.7 878.708 1067.56 875.256 1068.9C871.504 1069.9 862.379 1071.3 855.896 1068.9C847.792 1065.9 837.886 1070.4 834.735 1071.9C831.583 1073.4 818.076 1076.4 811.773 1075.9C805.47 1075.4 807.27 1071.4 805.019 1072.9C802.768 1074.4 767.2 1074.4 761.347 1072.9C756.664 1071.7 749.49 1073.4 746.489 1074.4C729.2 1080.8 714.072 1076.06 708.669 1072.9C707.228 1077.3 703.867 1079.4 702.366 1079.9C697.863 1082.9 688.859 1070.4 685.707 1066.4C682.555 1062.4 680.755 1063.9 679.854 1064.9C679.134 1065.7 676.853 1065.23 675.802 1064.9C667.248 1056.9 645.186 1068.9 634.831 1074.9C624.475 1080.9 614.57 1068.9 613.219 1068.9C611.869 1068.9 602.414 1073.4 599.262 1072.9C596.741 1072.5 582.303 1070.06 575.4 1068.9C573.899 1070.23 568.016 1071.5 556.49 1065.9C544.964 1060.3 539.381 1063.23 538.03 1065.4C532.267 1059 526.324 1058.4 524.073 1058.9C519.571 1056.9 508.315 1065.4 506.964 1065.4C496.158 1062.4 469.595 1079.4 469.144 1080.4Z" fill="white"/>
<path d="M1663.17 1084.4C1664.07 1085.9 1662.27 1085.9 1661.82 1086.4H1677.57C1681.33 1087.9 1689.64 1089.9 1692.88 1085.9C1696.12 1081.9 1699.34 1084.56 1700.54 1086.4C1701.62 1085.2 1719.3 1083.9 1728 1083.4V1069.4C1725.75 1067.9 1700.54 1073.4 1699.64 1071.9C1698.91 1070.7 1697.53 1070.06 1696.93 1069.9C1695.43 1071.06 1691.71 1073.6 1688.83 1074.4C1685.23 1075.4 1680.73 1074.4 1678.47 1072.9C1676.22 1071.4 1660.01 1072.9 1658.66 1074.4C1657.31 1075.9 1660.01 1077.9 1661.82 1082.4C1663.62 1086.9 1662.27 1082.9 1663.17 1084.4Z" fill="white"/>
<path d="M1709.09 44.0624L1728 45.5624V58.0613L1709.09 57.5613C1704.14 49.5613 1691.08 47.5613 1686.58 47.5613C1682.08 47.5613 1677.12 53.5613 1675.77 54.5613C1674.42 55.5613 1657.31 55.5613 1650.56 54.5613C1643.81 53.5613 1641.55 47.0613 1640.65 47.0613C1639.75 47.0613 1626.7 49.0624 1624 49.5624C1621.83 49.9624 1615.89 47.3958 1613.19 46.0624C1611.03 38.4624 1605.39 39.2291 1602.83 40.5624C1586.63 44.0624 1583.47 39.0624 1577.17 30.0624C1570.87 21.0624 1567.27 22.5624 1566.82 22.5624C1560.33 26.9624 1550.61 30.3958 1546.56 31.5624C1534.85 33.0624 1534.85 15.5624 1523.59 14.0624C1520.2 13.6103 1514.44 19.8958 1511.89 23.5624C1511.44 20.0624 1500.18 8.56242 1494.33 12.5624C1489.65 15.7624 1480.37 20.8958 1476.32 23.0624C1474.07 15.0624 1466.86 10.0624 1463.26 10.0624C1459.66 10.0624 1451.56 18.5624 1451.56 21.5624C1451.56 24.5624 1445.25 32.5624 1445.25 31.0624C1445.25 29.8624 1440.75 28.5624 1438.5 28.0624C1438.5 27.5624 1437.06 27.1624 1431.3 29.5624C1425.89 30.5624 1413.29 18.5624 1409.68 18.5624C1406.8 18.5624 1403.98 20.5624 1402.93 21.5624C1398.25 12.7624 1394.38 14.2291 1393.03 16.0624C1392.43 17.2291 1389.51 20.2624 1382.67 23.0624C1374.12 26.5624 1375.47 14.0624 1373.22 16.0624C1370.96 18.0624 1360.61 23.5624 1352.5 26.5624C1344.4 29.5624 1338.55 23.0624 1327.74 21.5624C1316.94 20.0624 1304.33 30.0624 1296.23 32.5624C1288.12 35.0624 1271.91 28.0624 1262.01 26.5624C1252.1 25.0624 1247.6 29.0624 1246.7 28.0624C1245.98 27.2624 1241 22.7291 1238.6 20.5624C1248.32 12.5624 1281.97 17.2291 1297.58 20.5624C1305.86 14.5624 1326.84 12.0624 1336.3 11.5624C1348.54 20.7624 1366.01 11.3958 1373.22 5.56242C1377.18 15.5624 1385.97 10.7291 1389.87 7.06242C1397.8 0.262421 1401.28 7.22909 1402.03 11.5624C1405.99 5.96243 1409.68 7.22909 1411.03 8.56242C1426.34 17.0624 1431.75 20.5624 1434.45 18.5624C1437.15 16.5624 1439.4 17.0624 1440.75 17.0624C1441.83 17.0624 1444.2 19.3958 1445.25 20.5624C1446 20.7291 1447.68 20.2624 1448.4 17.0624C1449.12 13.8624 1455.01 5.72909 1457.86 2.06242C1465.06 -4.73758 1473.17 6.89576 1476.32 13.5624L1484.42 8.56242C1493.43 2.16242 1498.08 1.56242 1499.28 2.06242C1503.24 1.66242 1509.64 9.56242 1512.34 13.5624C1518.19 5.06242 1529 -1.43758 1535.75 13.5624C1542.5 28.5624 1560.51 13.5624 1562.31 13.5624C1568.8 8.76242 1571.92 11.5624 1572.67 13.5624C1587.08 29.9624 1594.58 31.0624 1596.53 29.5624C1612.02 25.5624 1614.09 31.2291 1613.19 34.5624L1624.9 37.0624C1627.06 35.8624 1636.3 34.8958 1640.65 34.5624C1648.22 45.7624 1667.52 43.5624 1676.22 41.0624C1688.83 28.6624 1703.39 37.8958 1709.09 44.0624Z" fill="white"/>
<path d="M1258.86 57.5613C1259.31 56.5613 1253.9 49.0613 1253.9 48.5613C1241.3 56.5616 1226.14 58.5612 1220.14 58.5609C1205.37 68.5609 1194.47 62.7275 1190.87 58.5609C1176.46 66.5609 1175.11 53.5609 1152.6 55.0609C1134.59 49.8609 1119.88 53.2275 1114.78 55.5609C1108.3 47.0164 1097.07 48.0007 1092.27 49.5609C1063.09 65.9609 1052.5 62.0605 1050.85 58.0604C1041.84 63.0598 1033.74 46.0609 1027.89 44.0609C1022.03 42.0609 1019.33 51.0609 1018.88 51.0609C1018.43 51.0609 1012.58 48.5609 1003.57 46.5609C996.369 44.9609 979.86 48.8942 972.507 51.0609C962.781 47.4609 934.537 49.5609 921.63 51.0609C911.275 47.0609 918.478 46.0609 893.265 52.5609C868.052 59.0609 873.455 50.5609 864.45 54.0609C857.246 56.8609 843.439 55.8942 837.436 55.0609C835.785 56.3942 831.763 59.1609 828.882 59.5609C826 59.9609 823.479 58.7275 822.578 58.0609C822.578 60.0609 818.676 63.2275 816.725 64.5609C793.763 69.0609 773.953 61.0609 773.053 61.0609C772.152 61.0609 773.053 59.5609 766.299 63.0609C759.546 66.5609 755.493 58.0609 755.043 58.0609C741.536 65.5609 737.934 56.0609 735.233 53.5609C732.531 51.0609 719.475 48.0609 713.622 45.0609C707.769 42.0609 699.214 31.5609 694.262 29.5609C690.299 27.9609 669.499 29.2276 659.594 30.0609C655.541 24.5609 628.527 27.0609 623.575 28.5609C618.622 30.0609 613.219 25.0609 611.869 26.5609C610.518 28.0609 591.158 27.0609 570.447 34.0609C553.878 39.6609 531.727 36.3942 522.722 34.0609C510.116 18.0609 495.708 30.5609 490.756 35.0609C486.793 38.6609 481.901 38.2276 479.95 37.5609C477.399 36.3942 471.846 34.0609 470.045 34.0609C467.794 34.0609 459.239 25.5609 456.538 25.0609C454.377 24.6609 452.336 25.8942 451.585 26.5609C445.732 17.5609 442.13 17.0609 433.126 12.5609C425.922 8.96088 407.912 20.3942 399.808 26.5609C391.704 21.5609 382.699 26.0609 374.595 27.5609C368.112 28.7609 364.09 28.0609 362.889 27.5609C356.436 30.7276 339.387 35.8609 322.818 31.0609C306.25 26.2609 293.103 32.0609 288.6 35.5609C272.842 35.5609 255.283 48.5609 250.33 50.5609C245.378 52.5609 233.672 51.5609 233.672 50.5609C233.672 49.5609 228.719 40.0609 227.819 40.0609C227.098 40.0609 226.018 41.3942 225.568 42.0609C218.364 38.8609 198.253 35.0609 189.099 33.5609L144.525 33.0609C135.881 37.0609 120.513 31.3942 113.909 28.0609H108.056V29.5609C119.312 46.0609 75.1891 34.0609 72.938 34.0609C71.1371 34.0609 66.7847 38.3942 64.8337 40.5609L66.6346 41.5609C67.5352 42.0609 68.8859 50.0609 69.7864 48.5609C70.5067 47.3609 73.6884 47.0609 75.1891 47.0609C113.909 56.0609 109.407 48.5609 109.407 46.0609C109.407 43.5609 108.056 40.0609 110.307 39.5609C112.108 39.1609 127.566 44.0609 135.07 46.5609C137.772 45.5609 143.985 44.0609 147.227 46.0609C151.279 48.5609 188.198 44.0609 189.999 46.0609C191.8 48.0609 213.861 50.5609 219.264 52.0609C223.586 53.2609 225.568 54.8942 226.018 55.5609C226.168 54.8942 226.738 53.4609 227.819 53.0609C229.169 52.5609 231.421 60.0609 233.672 64.5609C235.473 68.1609 245.828 66.0609 250.781 64.5609C257.984 56.5609 287.25 48.0609 289.501 47.0609C291.752 46.0609 296.254 39.5609 304.359 41.5609C312.463 43.5609 339.027 44.0609 341.728 44.5609C344.429 45.0609 358.837 40.0609 364.24 38.5609C369.642 37.0609 365.59 38.0609 372.344 40.0609C379.097 42.0609 383.6 36.0609 388.552 35.5609C392.514 35.1609 397.707 37.3942 399.808 38.5609C413.315 26.5609 417.818 28.0609 427.723 23.0609C437.628 18.0609 451.585 39.5609 451.585 39.0609C451.585 38.5609 456.538 37.0609 459.239 37.5609C461.941 38.0609 469.144 45.5609 470.045 46.0609C470.945 46.5609 470.945 46.0609 476.798 49.5609C481.481 52.3609 485.653 50.7275 487.154 49.5609C490.455 46.3942 498.77 39.5609 505.613 37.5609C514.168 35.0609 520.021 43.5609 522.722 46.0609C525.424 48.5609 539.381 48.0609 540.281 48.0609C550.727 51.6609 560.842 49.5609 564.594 48.0609C576.48 44.0609 602.564 40.0609 614.12 38.5609C616.371 43.5609 642.034 35.5609 651.94 38.5609C659.864 40.9609 662.745 42.2276 663.195 42.5609C676.702 39.0609 690.66 41.0609 695.162 42.5609C699.664 44.0609 709.119 60.0609 713.622 59.0609C717.224 58.2609 730.43 65.3939 736.584 69.0604C743.787 82.0598 750.091 74.5609 750.991 75.0609C751.892 75.5609 754.593 71.5609 755.493 73.5609C756.394 75.5609 760.896 78.5609 764.498 77.5609C768.1 76.5609 772.152 76.5604 773.053 76.5604C779.806 81.5604 802.318 79.5604 807.721 79.5604H816.275C819.517 79.5604 821.828 74.8937 822.578 72.5604C825.1 77.7604 832.934 72.3937 836.536 69.0604C841.218 72.2604 849.292 70.3937 852.744 69.0604C856.496 68.0604 865.621 66.6604 872.104 69.0604C880.208 72.0604 890.114 67.5604 893.265 66.0604C896.417 64.5604 909.924 61.5604 916.227 62.0604C922.53 62.5604 920.73 66.5604 922.981 65.0604C925.232 63.5604 960.8 63.5604 966.653 65.0604C971.336 66.2604 978.51 64.5604 981.511 63.5604C998.8 57.1604 1013.93 61.8937 1019.33 65.0604C1020.77 60.6604 1024.13 58.5604 1025.63 58.0604C1030.14 55.0604 1039.14 67.5604 1042.29 71.5604C1045.44 75.5604 1047.25 74.0604 1048.15 73.0604C1048.87 72.2604 1051.15 72.727 1052.2 73.0604C1060.75 81.0604 1082.81 69.0604 1093.17 63.0604C1103.52 57.0604 1113.43 69.0604 1114.78 69.0604C1116.13 69.0604 1125.59 64.5604 1128.74 65.0604C1131.26 65.4604 1145.7 67.8937 1152.6 69.0604C1154.1 67.727 1159.98 66.4604 1171.51 72.0604C1183.04 77.6604 1188.62 74.7276 1189.97 72.5613C1195.73 78.9621 1201.68 79.5609 1203.93 79.0603C1208.43 81.0603 1219.69 72.5613 1221.04 72.5613C1231.84 75.5613 1258.41 58.5613 1258.86 57.5613Z" fill="white"/>
<path d="M64.8337 53.5609C63.9332 52.0609 65.7343 52.0609 66.1844 51.5609H50.4263C46.6743 50.0609 38.36 48.0609 35.1183 52.0609C31.8766 56.0609 28.6649 53.3942 27.4642 51.5609C26.3838 52.7609 8.70447 54.0609 0 54.5609V68.5609C2.2511 70.0609 27.4642 64.5609 28.3647 66.0609C29.0852 67.2609 30.4659 67.8942 31.0662 68.0609C32.5669 66.8942 36.2889 64.3609 39.1704 63.5609C42.7722 62.5609 47.2747 63.5609 49.5258 65.0609C51.777 66.5609 67.9854 65.0609 69.3361 63.5609C70.6868 62.0609 67.9854 60.0609 66.1844 55.5609C64.3835 51.0609 65.7343 55.0609 64.8337 53.5609Z" fill="white"/>
</svg>
